<svg id="Layer_1" data-name="Layer 1" xmlns="http://www.w3.org/2000/svg" ><defs><style>.cls-1{fill:#00195f;}</style></defs><path class="cls-1" d="M26.83,27.56c10-8.09,24.42-10.84,32.42-11A31.33,31.33,0,0,0,1.77,40.23L17,22.29h1.12l1.69,12a53.81,53.81,0,0,1,7-6.76ZM58.56,40.09A2,2,0,0,1,58,41.56a2,2,0,0,1-1.48.62h-1a1.84,1.84,0,0,1-2.09-2.09h1.05a1.21,1.21,0,0,0,0,.18.74.74,0,0,0,.33.65,1.26,1.26,0,0,0,.73.22,1.07,1.07,0,0,0,.81-.27,1.18,1.18,0,0,0,.24-.79,1,1,0,0,0-.31-.74L54,36.85a2.18,2.18,0,0,1-.61-1.48v-.52A2,2,0,0,1,54,33.37a2,2,0,0,1,1.48-.62h1c1.31,0,2,.7,2.09,2.1h-1c-.09-.71-.42-1.06-1-1.06a1.18,1.18,0,0,0-.84.27,1,1,0,0,0-.27.79,1.12,1.12,0,0,0,.3.74L58,38.08a2.24,2.24,0,0,1,.61,1.48v.53h0Zm-9.27,0a2.1,2.1,0,0,1-2.09,2.09H46.15a1.84,1.84,0,0,1-2.09-2.09h1a1.21,1.21,0,0,0,0,.18.74.74,0,0,0,.33.65,1.26,1.26,0,0,0,.73.22,1,1,0,0,0,.8-.27,1.18,1.18,0,0,0,.24-.79,1,1,0,0,0-.31-.74l-2.22-2.49a2.18,2.18,0,0,1-.61-1.48v-.52a2.1,2.1,0,0,1,2.09-2.1H47.2c1.31,0,2,.7,2.09,2.1h-1c-.09-.71-.42-1.06-1-1.06a1.18,1.18,0,0,0-.84.27,1,1,0,0,0-.27.79,1.08,1.08,0,0,0,.31.74l2.22,2.49a2.2,2.2,0,0,1,.61,1.48ZM40.08,42H34.94V32.78h5.14v1H37V36.9h2.06v1H37V41h3.08v1ZM63.32,32a31.23,31.23,0,0,0-4-15.26c-7.5,1.71-15.18,4.46-21.14,8.62-6.72,4.69-11.39,10.56-12.86,15.53l-.11.33L25,42H14.59L13,29.62,2.35,42.11A31.32,31.32,0,0,0,63.32,32Z"/></svg>